<svg width="15" height="15" viewBox="0 0 15 15" fill="none" xmlns="http://www.w3.org/2000/svg">
<path d="M0.921509 1.91256V8.68264C0.921509 9.05654 1.21573 9.35965 1.57868 9.35965H3.76924C4.13219 9.35965 4.42641 9.05654 4.42641 8.68264V1.91256C4.42641 1.53865 4.13219 1.23555 3.76924 1.23555H1.57868C1.21573 1.23555 0.921509 1.53865 0.921509 1.91256ZM2.01679 7.55429C2.01679 7.18039 2.31101 6.87728 2.67396 6.87728C3.03691 6.87728 3.33113 7.18039 3.33113 7.55429C3.33113 7.9282 3.03691 8.2313 2.67396 8.2313C2.31101 8.2313 2.01679 7.9282 2.01679 7.55429ZM9.4647 14.7757C8.91205 14.7757 8.65734 13.6673 8.5356 13.1454C8.39305 12.5342 8.24565 11.9022 7.84029 11.4838C6.95122 10.5664 6.48479 9.39733 5.40008 8.29313C5.36922 8.2617 5.34471 8.22427 5.32799 8.18301C5.31126 8.14175 5.30265 8.09748 5.30266 8.05277V2.0226C5.30266 1.83809 5.44622 1.68754 5.6253 1.68415C6.05878 1.67597 6.63006 1.42804 7.06699 1.22779C7.93648 0.829287 9.01862 0.33335 10.3408 0.33287H10.4187C11.59 0.33287 12.9751 0.344521 13.534 1.17171C13.7638 1.51182 13.8201 1.93431 13.7024 2.43072C14.149 2.91176 14.3886 3.80908 14.1509 4.53952C14.6313 5.2005 14.6751 6.12293 14.4058 6.78123L14.4088 6.78434C14.7345 7.1214 14.9434 7.66611 14.9411 8.17212C14.9368 9.02831 14.2249 9.81099 13.3104 9.81099H10.525C10.7251 10.6104 11.4362 11.2816 11.4362 12.4781C11.4362 14.55 10.1219 14.7757 9.4647 14.7757Z" fill="#4D4D4D"/>
</svg>
