<svg width="10" height="10" viewBox="0 0 10 10" fill="none" xmlns="http://www.w3.org/2000/svg">
<path d="M4.5848 8.55967L3.7989 7.75005L7.96022 3.46311L8.74611 4.27273C9.11095 4.64858 9.73475 4.3824 9.73477 3.85086L9.73477 0.825383C9.73477 0.495867 9.4755 0.228771 9.15564 0.228771L6.21882 0.228771C5.70288 0.228772 5.44448 0.87142 5.80932 1.24727L6.59519 2.05688L2.43388 6.34381L1.64798 5.53419C1.28315 5.15834 0.659347 5.42452 0.65933 5.95606L0.659329 8.98154C0.659329 9.31106 0.918598 9.57815 1.23846 9.57815L4.17528 9.57815C4.69124 9.57817 4.94964 8.93552 4.5848 8.55967Z" fill="#148DD9"/>
</svg>
