<svg width="42" height="26" viewBox="0 0 42 26" fill="none" xmlns="http://www.w3.org/2000/svg">
<path d="M28.5941 15.9017L23.273 8.05757C23.0523 7.73225 22.7533 7.46551 22.4025 7.28103C22.0517 7.09654 21.66 7.00001 21.2622 7H7.73781C7.33997 7 6.94828 7.09653 6.59751 7.28102C6.24674 7.46551 5.94774 7.73225 5.72705 8.05757L0.405899 15.9017C0.141228 16.2918 -5.8268e-06 16.7502 1.80298e-10 17.2191L1.80299e-10 23.625C1.80299e-10 24.9367 1.08196 26 2.41667 26H26.5833C27.918 26 29 24.9367 29 23.625V17.2191C29 16.7502 28.8588 16.2918 28.5941 15.9017ZM8.16894 10.1667H20.8311L25.1274 16.5H18.9306L17.3194 19.6667H11.6806L10.0694 16.5H3.87261L8.16894 10.1667Z" fill="#148DD9"/>
<circle cx="25" cy="9" r="9" fill="#FA5E2D"/>
<path d="M25.4336 8.08984C25.4336 9.77734 25.0781 11.0371 24.3672 11.8691C23.6562 12.7012 22.5801 13.1172 21.1387 13.1172C20.6309 13.1172 20.2461 13.0898 19.9844 13.0352V11.582C20.3125 11.6641 20.6562 11.7051 21.0156 11.7051C21.6211 11.7051 22.1191 11.6172 22.5098 11.4414C22.9004 11.2617 23.1992 10.9824 23.4062 10.6035C23.6133 10.2207 23.7324 9.69531 23.7637 9.02734H23.6934C23.4668 9.39453 23.2051 9.65234 22.9082 9.80078C22.6113 9.94922 22.2402 10.0234 21.7949 10.0234C21.0488 10.0234 20.4609 9.78516 20.0312 9.30859C19.6016 8.82812 19.3867 8.16211 19.3867 7.31055C19.3867 6.39258 19.6465 5.66797 20.166 5.13672C20.6895 4.60156 21.4004 4.33398 22.2988 4.33398C22.9316 4.33398 23.4844 4.48242 23.957 4.7793C24.4336 5.07617 24.7988 5.50781 25.0527 6.07422C25.3066 6.63672 25.4336 7.30859 25.4336 8.08984ZM22.334 5.78711C21.959 5.78711 21.666 5.91602 21.4551 6.17383C21.2441 6.43164 21.1387 6.80273 21.1387 7.28711C21.1387 7.70117 21.2344 8.0293 21.4258 8.27148C21.6172 8.51367 21.9082 8.63477 22.2988 8.63477C22.666 8.63477 22.9805 8.51562 23.2422 8.27734C23.5039 8.03516 23.6348 7.75781 23.6348 7.44531C23.6348 6.98047 23.5117 6.58789 23.2656 6.26758C23.0234 5.94727 22.7129 5.78711 22.334 5.78711ZM28.1748 10.0117H26.2852V8.94238H28.1748V7.03809H29.2441V8.94238H31.1338V10.0117H29.2441V11.8916H28.1748V10.0117Z" fill="white"/>
</svg>
