<svg width="14" height="15" viewBox="0 0 14 15" fill="none" xmlns="http://www.w3.org/2000/svg">
<path d="M2.82061 6.59142H0.650911C0.291418 6.59142 0 6.89164 0 7.26198V13.9676C0 14.3379 0.291418 14.6381 0.650911 14.6381H2.82061C3.18011 14.6381 3.47152 14.3379 3.47152 13.9676V7.26198C3.47152 6.89164 3.18011 6.59142 2.82061 6.59142ZM1.73576 13.5205C1.37627 13.5205 1.08485 13.2203 1.08485 12.85C1.08485 12.4796 1.37627 12.1794 1.73576 12.1794C2.09525 12.1794 2.38667 12.4796 2.38667 12.85C2.38667 13.2203 2.09525 13.5205 1.73576 13.5205ZM10.4146 2.60863C10.4146 3.79373 9.71023 4.45848 9.51206 5.2503H12.2709C13.1767 5.2503 13.8818 6.02552 13.8861 6.87356C13.8883 7.37475 13.6814 7.9143 13.3589 8.24812L13.3559 8.2512C13.6226 8.90323 13.5793 9.81687 13.1034 10.4716C13.3389 11.1951 13.1016 12.0838 12.6591 12.5603C12.7757 13.052 12.72 13.4704 12.4924 13.8073C11.9388 14.6266 10.5669 14.6381 9.40672 14.6381L9.32956 14.6381C8.01995 14.6376 6.94815 14.1464 6.08694 13.7517C5.65416 13.5534 5.08831 13.3078 4.65898 13.2997C4.4816 13.2964 4.33941 13.1472 4.33941 12.9645V6.99174C4.33941 6.90234 4.37418 6.81653 4.4359 6.75367C5.51029 5.65998 5.97227 4.50207 6.85287 3.59334C7.25437 3.17894 7.40039 2.55297 7.54156 1.94762C7.66217 1.4307 7.91445 0.332855 8.46184 0.332855C9.11275 0.332855 10.4146 0.556375 10.4146 2.60863Z" fill="#4D4D4D"/>
</svg>
